<svg width="120" height="120" viewBox="0 0 120 120" fill="none" xmlns="http://www.w3.org/2000/svg">
  <rect width="120" height="120" fill="#42E727" />
  <path
    d="M53.719 14.2H69.591V16.632C68.7803 17.272 67.8843 17.848 66.903 18.36C65.9216 18.8293 65.0043 19.192 64.151 19.448V59.768H58.711L36.119 27.128L33.559 22.2H33.367L33.943 27.32V54.008C34.7963 54.2213 35.735 54.584 36.759 55.096C37.8256 55.5653 38.7216 56.056 39.447 56.568V59H23.639V56.568C24.407 56.056 25.239 55.5867 26.135 55.16C27.0736 54.6907 28.0336 54.3067 29.015 54.008V19.064C28.1616 18.7227 27.3083 18.3387 26.455 17.912C25.6016 17.4853 24.8336 17.0373 24.151 16.568V14.2H37.975L56.343 40.824L59.287 46.328H59.543L59.223 40.824V19.448C58.199 19.1067 57.1963 18.7013 56.215 18.232C55.2763 17.72 54.4443 17.1867 53.719 16.632V14.2ZM96.907 59H79.243V56.504C79.883 56.1627 80.5443 55.8853 81.227 55.672C81.9096 55.416 82.6563 55.1813 83.467 54.968V31.544L79.243 31.032V28.536C79.883 28.28 80.6723 28.024 81.611 27.768C82.5923 27.512 83.6163 27.2987 84.683 27.128C85.7496 26.9147 86.795 26.744 87.819 26.616C88.843 26.4453 89.739 26.3173 90.507 26.232H92.683V54.968C93.5363 55.1813 94.3043 55.416 94.987 55.672C95.6696 55.8853 96.3096 56.1627 96.907 56.504V59ZM82.379 16.504C82.379 15.0107 82.891 13.8373 83.915 12.984C84.939 12.1307 86.2616 11.704 87.883 11.704C89.5043 11.704 90.827 12.1307 91.851 12.984C92.875 13.8373 93.387 15.0107 93.387 16.504C93.387 17.9547 92.875 19.1067 91.851 19.96C90.827 20.8133 89.5043 21.24 87.883 21.24C86.2616 21.24 84.939 20.8133 83.915 19.96C82.891 19.1067 82.379 17.9547 82.379 16.504ZM61.4692 106.184C60.6159 106.611 59.5705 107.037 58.3332 107.464C57.0959 107.891 55.7945 108.275 54.4292 108.616C53.0639 108.957 51.6985 109.235 50.3332 109.448C48.9679 109.661 47.7519 109.768 46.6852 109.768C43.0159 109.768 39.7305 109.299 36.8292 108.36C33.9705 107.379 31.5172 105.928 29.4692 104.008C27.4639 102.045 25.9279 99.6133 24.8612 96.712C23.7945 93.8107 23.2612 90.44 23.2612 86.6C23.2612 82.4187 23.9012 78.8773 25.1812 75.976C26.5039 73.032 28.2319 70.6427 30.3652 68.808C32.5412 66.9307 34.9945 65.5653 37.7252 64.712C40.4559 63.8587 43.2505 63.432 46.1092 63.432C48.9252 63.432 51.5705 63.624 54.0452 64.008C56.5199 64.392 58.4825 64.9467 59.9332 65.672C59.9332 66.312 59.8905 67.144 59.8052 68.168C59.7625 69.1493 59.6772 70.216 59.5492 71.368C59.4212 72.52 59.2505 73.672 59.0372 74.824C58.8665 75.976 58.6532 77.0213 58.3972 77.96H55.7732L52.1892 68.232C51.7199 68.0187 51.0159 67.8693 50.0772 67.784C49.1385 67.656 48.1999 67.592 47.2612 67.592C45.5119 67.592 43.8265 67.9333 42.2052 68.616C40.5839 69.2987 39.1545 70.408 37.9172 71.944C36.6799 73.4373 35.6985 75.4 34.9732 77.832C34.2479 80.2213 33.8852 83.144 33.8852 86.6C33.8852 89.416 34.2052 91.9973 34.8452 94.344C35.5279 96.648 36.4665 98.632 37.6612 100.296C38.8559 101.96 40.2852 103.261 41.9492 104.2C43.6132 105.139 45.4479 105.608 47.4532 105.608C48.0932 105.608 48.7545 105.565 49.4372 105.48C50.1199 105.352 50.7599 105.203 51.3572 105.032C51.9545 104.861 52.4665 104.669 52.8932 104.456C53.3625 104.243 53.6825 104.051 53.8532 103.88V91.848C52.7439 91.7627 51.6985 91.5493 50.7172 91.208C49.7359 90.8667 48.8185 90.4613 47.9652 89.992V87.56H65.4372V89.992C65.0532 90.376 64.5412 90.7387 63.9012 91.08C63.2612 91.3787 62.4505 91.6347 61.4692 91.848V106.184ZM91.1002 84.36C90.5882 84.616 89.9909 85.0427 89.3082 85.64C88.6255 86.2373 88.0069 87.2187 87.4522 88.584V104.968C88.3055 105.053 89.1589 105.224 90.0122 105.48C90.8655 105.693 91.7189 106.035 92.5722 106.504V109H74.0122V106.504C74.7802 106.077 75.5055 105.757 76.1882 105.544C76.8709 105.331 77.5535 105.139 78.2362 104.968V81.544L74.0122 81.032V78.536C74.6949 78.2373 75.5269 77.96 76.5082 77.704C77.5322 77.448 78.5775 77.2347 79.6442 77.064C80.7109 76.8507 81.7349 76.68 82.7162 76.552C83.7402 76.424 84.5935 76.3173 85.2762 76.232H87.4522V84.744H87.7082C88.0495 83.8053 88.5402 82.824 89.1802 81.8C89.8629 80.776 90.6522 79.8373 91.5482 78.984C92.4442 78.1307 93.4255 77.448 94.4922 76.936C95.5589 76.424 96.6682 76.1893 97.8202 76.232C98.2895 76.8293 98.6949 77.6827 99.0362 78.792C99.3775 79.8587 99.6549 80.8827 99.8682 81.864V84.36H91.1002Z"
    fill="#1400FB" />
</svg>