<svg width="38" height="40" viewBox="0 0 38 40" fill="none" xmlns="http://www.w3.org/2000/svg">
<rect x="3" y="2" width="32" height="32" rx="4" fill="#D9D9D9"/>
<g filter="url(#filter0_d_3005_711)">
<path d="M26.7461 19.7676V17.4648C26.7461 14.7578 26.6875 11.5762 26.5703 7.91992C26.5469 7.29883 25.2637 6.88281 22.7207 6.67188C22.5566 6.26172 22.4746 5.88672 22.4746 5.54688C22.4746 5.33594 22.5566 4.97852 22.7207 4.47461C24.502 4.54492 26.2891 4.58008 28.082 4.58008C29.8867 4.58008 31.7383 4.54492 33.6367 4.47461C33.8008 4.97852 33.8828 5.33594 33.8828 5.54688C33.8828 5.88672 33.8008 6.26172 33.6367 6.67188C31.2109 6.90625 29.9863 7.32227 29.9629 7.91992C29.8105 10.3926 29.7344 14.0078 29.7344 18.7656C29.7344 24.1328 29.8105 28.4746 29.9629 31.791L28.5215 31.8262L11.8398 11.418C11.8398 11.6289 11.834 12.0156 11.8223 12.5781C11.8105 13.1289 11.8047 13.5566 11.8047 13.8613C11.8047 19.5215 11.8809 24.3438 12.0332 28.3281C12.0566 28.9609 13.3398 29.3828 15.8828 29.5938C16.0469 30.0039 16.1289 30.3789 16.1289 30.7188C16.1289 30.9766 16.0469 31.3574 15.8828 31.8613C14.0781 31.791 12.291 31.7559 10.5215 31.7559C8.7168 31.7559 6.86523 31.791 4.9668 31.8613C4.80273 31.3574 4.7207 30.9766 4.7207 30.7188C4.7207 30.3789 4.80273 30.0039 4.9668 29.5938C7.39258 29.3594 8.61719 28.9375 8.64062 28.3281C8.78125 25.8672 8.85156 22.2578 8.85156 17.5C8.85156 13.8555 8.80469 10.6035 8.71094 7.74414C7.94922 7.14648 6.78906 6.78906 5.23047 6.67188C5.05469 6.35547 4.9668 5.99219 4.9668 5.58203C4.9668 5.14844 5.07812 4.75586 5.30078 4.4043C7.75 4.52148 10.8438 4.58008 14.582 4.58008L26.7461 19.7676ZM29.0137 18.7656C29.0137 15.2148 29.0898 11.5996 29.2422 7.91992C29.2891 6.86523 30.584 6.2207 33.127 5.98633C33.2207 5.78711 33.2207 5.51172 33.127 5.16016C30.9121 5.23047 29.3418 5.26562 28.416 5.26562C26.9512 5.26562 25.2812 5.23047 23.4062 5.16016C23.3125 5.51172 23.3125 5.78711 23.4062 5.98633C25.9727 6.2207 27.2676 6.86523 27.291 7.91992C27.4082 11.5762 27.4668 14.7578 27.4668 17.4648C27.4668 19.0469 27.4434 21.1797 27.3965 23.8633L12.2441 5.30078C9.60742 5.30078 7.42188 5.25391 5.6875 5.16016C5.59375 5.44141 5.59375 5.7168 5.6875 5.98633C7.19922 6.08008 8.44727 6.56055 9.43164 7.42773C9.52539 10.2754 9.57227 13.6328 9.57227 17.5C9.57227 21.0508 9.50195 24.6602 9.36133 28.3281C9.31445 29.3945 8.01953 30.0449 5.47656 30.2793C5.38281 30.4668 5.38281 30.7422 5.47656 31.1055C7.67969 31.0352 9.25 31 10.1875 31C11.6523 31 13.3223 31.0352 15.1973 31.1055C15.291 30.7422 15.291 30.4668 15.1973 30.2793C12.6309 30.0449 11.3359 29.3945 11.3125 28.3281C11.1953 24.6836 11.1367 21.5078 11.1367 18.8008C11.1367 15.707 11.1719 12.6426 11.2422 9.60742H11.418L28.873 31.1055L29.207 31.0703C29.0781 28.3164 29.0137 24.2148 29.0137 18.7656Z" fill="black"/>
</g>
<defs>
<filter id="filter0_d_3005_711" x="0.720703" y="4.4043" width="37.1621" height="35.457" filterUnits="userSpaceOnUse" color-interpolation-filters="sRGB">
<feFlood flood-opacity="0" result="BackgroundImageFix"/>
<feColorMatrix in="SourceAlpha" type="matrix" values="0 0 0 0 0 0 0 0 0 0 0 0 0 0 0 0 0 0 127 0" result="hardAlpha"/>
<feOffset dy="4"/>
<feGaussianBlur stdDeviation="2"/>
<feComposite in2="hardAlpha" operator="out"/>
<feColorMatrix type="matrix" values="0 0 0 0 0 0 0 0 0 0 0 0 0 0 0 0 0 0 0.25 0"/>
<feBlend mode="normal" in2="BackgroundImageFix" result="effect1_dropShadow_3005_711"/>
<feBlend mode="normal" in="SourceGraphic" in2="effect1_dropShadow_3005_711" result="shape"/>
</filter>
</defs>
</svg>
