<?xml version="1.0" encoding="utf-8"?><svg viewBox="0 0 216 78" xmlns="http://www.w3.org/2000/svg" xmlns:xlink="http://www.w3.org/1999/xlink"><style>:root>svg{display:none}:root>svg:target{display:block}</style><svg viewBox="0 0 216 78" id="logo" xmlns="http://www.w3.org/2000/svg"><path d="M92.117 11.827c2.376 0 4.22.47 5.533 1.38 1.312.91 2 2.291 2 4.142 0 .942-.25 1.757-.75 2.51-.5.722-1.22 1.287-2.157 1.663 1.22.251 2.094.816 2.72 1.663.593.847.906 1.82.906 2.95 0 1.945-.625 3.388-1.907 4.392-1.281 1.004-3.063 1.475-5.407 1.475h-9.878v-2.416l2.126-.408V14.682l-2.126-.408v-2.447h8.94zm-2.75 8.44h2.906c1.063 0 1.907-.22 2.47-.659.562-.439.875-1.098.875-1.945 0-.941-.281-1.631-.875-2.07-.594-.44-1.47-.66-2.626-.66h-2.75v5.334zm0 2.793v5.804h3.719c1.063 0 1.875-.22 2.438-.69.563-.47.844-1.161.844-2.07 0-.974-.25-1.758-.719-2.26-.469-.533-1.219-.784-2.25-.784h-4.033zM109.62 14.274l-1.657.252 3.126 6.62h.094l3.126-6.62-1.626-.252v-2.447h7.596v2.447l-1.719.283-5.47 10.354v4.267l2.156.408v2.416h-8.314v-2.416l2.157-.408V24.69l-5.377-10.134-1.688-.283v-2.447h7.596v2.447zM139.69 11.827v5.365h-3.095l-.156-2.259h-3.688v14.213l2.157.408v2.416h-8.346v-2.416l2.156-.407V14.932h-3.688l-.156 2.26h-3.063v-5.366h17.879zM154.383 23.122h-6.815v5.773h6.471l.187-2.415h3.064v5.522h-15.879v-2.416l2.125-.408V14.682l-2.125-.408v-2.447h15.847v5.522h-3.094l-.188-2.416h-6.439v5.083h6.814l.032 3.106zM175.168 18.26h-3.032l-.531-2.76c-.344-.22-.875-.408-1.532-.597a9.172 9.172 0 00-2.125-.25c-1.094 0-1.97.219-2.564.69-.593.47-.906 1.066-.906 1.82 0 .69.313 1.254.938 1.694.625.439 1.719.91 3.251 1.38 2.219.628 3.907 1.444 5.032 2.448 1.157 1.004 1.719 2.353 1.719 4.016 0 1.725-.687 3.074-2.032 4.078-1.375 1.005-3.157 1.506-5.376 1.506-1.594 0-3.032-.25-4.313-.752a9.26 9.26 0 01-3.22-2.103v-4.235h3.126l.437 2.855c.407.345.969.596 1.657.816.688.22 1.469.313 2.313.313 1.094 0 1.938-.22 2.532-.69.563-.44.875-1.067.875-1.82 0-.784-.281-1.412-.812-1.882-.563-.47-1.501-.91-2.876-1.318-2.376-.69-4.189-1.506-5.408-2.479-1.219-.941-1.844-2.259-1.844-3.89 0-1.632.688-2.981 2.063-4.016 1.375-1.036 3.126-1.57 5.189-1.6 1.531 0 2.938.25 4.22.721 1.281.47 2.344 1.098 3.188 1.883v4.173h.031zM83.02 56.162c0-1.098.312-2.04.906-2.824.594-.784 1.5-1.6 2.72-2.479-.626-.847-1.095-1.631-1.407-2.322a5.157 5.157 0 01-.469-2.133c0-1.6.5-2.887 1.5-3.828 1-.941 2.313-1.443 4.001-1.443 1.47 0 2.657.44 3.564 1.349.906.91 1.375 2.008 1.375 3.294 0 .91-.219 1.726-.688 2.48-.437.752-1.062 1.411-1.844 1.976l-1.281.91 3.813 4.455c.344-.565.594-1.16.782-1.788a7.306 7.306 0 00.28-2.04h3.001c0 1.287-.156 2.448-.468 3.514a8.469 8.469 0 01-1.438 2.855l2.876 3.389-.032.063h-4.47l-1.062-1.224a9.836 9.836 0 01-2.407 1.13 9.066 9.066 0 01-2.657.376c-2 0-3.595-.533-4.782-1.6-1.22-1.004-1.814-2.385-1.814-4.11zm6.782 2.635c.5 0 .97-.062 1.47-.188.5-.125.969-.314 1.406-.565l-4.126-4.831-.25.188c-.469.439-.781.878-.969 1.286a3.59 3.59 0 00-.25 1.255c0 .816.25 1.506.75 2.04.5.533 1.157.815 1.97.815zm-1.406-12.424c0 .407.094.815.281 1.223.188.408.5.879.875 1.38l1.188-.784c.5-.345.875-.659 1.032-1.035.187-.345.281-.722.281-1.161 0-.47-.156-.879-.5-1.224a1.787 1.787 0 00-1.313-.533c-.594 0-1.063.188-1.375.596-.313.44-.47.941-.47 1.538zM117.623 41.448c2.282 0 4.063.534 5.376 1.569 1.282 1.035 1.938 2.51 1.938 4.33 0 1.004-.281 1.882-.813 2.635-.531.753-1.344 1.35-2.375 1.82 1.188.345 2.032.941 2.563 1.757.531.816.781 1.82.781 3.044v1.035c0 .44.094.785.25 1.035.188.252.469.377.876.44l.5.063v2.447h-2.094c-1.313 0-2.251-.345-2.782-1.067-.532-.722-.813-1.631-.813-2.761v-1.16c0-.974-.25-1.758-.782-2.291-.531-.565-1.25-.848-2.188-.879h-3.282v5.303l2.157.407v2.416h-8.314v-2.416l2.125-.407V44.303l-2.125-.407v-2.448H117.623zm-2.876 8.88h2.782c1.125 0 1.969-.251 2.532-.722.563-.47.844-1.161.844-2.07 0-.91-.281-1.632-.844-2.166-.563-.533-1.375-.816-2.469-.816h-2.845v5.774zM128.438 43.895v-2.447h8.315v2.447l-2.157.408v14.465l2.157.407v2.416h-8.315v-2.416l2.157-.407V44.303l-2.157-.407zM155.35 59.363c-.657.659-1.594 1.224-2.845 1.757-1.25.533-2.844.784-4.751.784-2.719 0-4.907-.91-6.626-2.73-1.688-1.82-2.564-4.204-2.564-7.122v-.69c0-3.012.844-5.46 2.532-7.373 1.688-1.883 3.876-2.824 6.564-2.824 1.563 0 3.001.251 4.314.753 1.313.502 2.376 1.192 3.251 2.04v4.047h-2.97l-.562-2.698c-.375-.314-.844-.565-1.469-.753-.594-.189-1.282-.283-2.063-.283-1.751 0-3.126.66-4.095 1.946-.969 1.286-1.469 3.012-1.469 5.114v.721c0 2.04.469 3.671 1.438 4.895.969 1.224 2.344 1.82 4.126 1.82.812 0 1.469-.063 1.969-.22a4.93 4.93 0 001.188-.47v-3.42l-2.876-.22v-2.824h6.908v7.75zM157.79 43.895v-2.447h8.314v2.447l-2.157.408v5.805h8.221v-5.805l-2.157-.407v-2.448H178.326v2.447l-2.157.408v14.465l2.157.407v2.416h-8.315v-2.416l2.157-.407v-5.554h-8.189v5.554l2.156.407v2.416h-8.345v-2.416l2.125-.407V44.303l-2.125-.407zM197.985 41.448v5.365h-3.094l-.156-2.259h-3.689v14.214l2.157.407v2.416h-8.346v-2.416l2.157-.407V44.554h-3.689l-.156 2.26h-3.063v-5.366h17.879zM214.99 47.879h-3.032l-.531-2.761c-.344-.22-.875-.408-1.532-.597a9.173 9.173 0 00-2.125-.25c-1.094 0-1.969.219-2.563.69-.594.47-.907 1.066-.907 1.82 0 .69.313 1.255.938 1.694.625.439 1.719.91 3.251 1.38 2.219.628 3.907 1.444 5.032 2.448 1.157 1.004 1.719 2.353 1.719 4.016 0 1.725-.687 3.075-2.031 4.078-1.376 1.005-3.157 1.507-5.377 1.507-1.594 0-3.032-.252-4.313-.754a9.269 9.269 0 01-3.22-2.102v-4.204h3.126l.438 2.855c.406.345.969.596 1.656.816.688.22 1.469.314 2.313.314 1.094 0 1.938-.22 2.532-.69.563-.44.876-1.067.876-1.82 0-.785-.282-1.412-.813-1.883-.563-.47-1.501-.91-2.876-1.318-2.375-.69-4.188-1.506-5.407-2.478-1.22-.973-1.845-2.26-1.845-3.89 0-1.633.688-2.982 2.063-4.017 1.376-1.035 3.126-1.569 5.189-1.6 1.532 0 2.938.25 4.22.721 1.281.471 2.344 1.099 3.188 1.883v4.142h.031zM17.004 11.232h-2.22v2.228h2.22v-2.228zM14.285 11.232h-2.22v2.228h2.22v-2.228zM22.474 14.025h-2.22v2.228h2.22v-2.228zM19.723 14.025h-2.22v2.228h2.22v-2.228zM17.004 14.025h-2.22v2.228h2.22v-2.228zM14.285 14.025h-2.22v2.228h2.22v-2.228zM10.627 14.025h-2.22v2.228h2.22v-2.228zM2.22 14.025H0v2.228h2.22v-2.228zM22.474 19.64h-2.22v2.228h2.22v-2.227zM19.723 19.64h-2.22v2.228h2.22v-2.227zM17.004 19.64h-2.22v2.228h2.22v-2.227zM14.285 19.64h-2.22v2.228h2.22v-2.227zM22.474 28.081h-2.22v2.228h2.22V28.08zM19.723 28.081h-2.22v2.228h2.22V28.08zM22.474 30.873h-2.22v2.228h2.22v-2.228zM17.004 30.873h-2.22v2.228h2.22v-2.228zM14.285 30.873h-2.22v2.228h2.22v-2.228zM22.474 33.696h-2.22v2.228h2.22v-2.228zM19.723 33.696h-2.22v2.228h2.22v-2.228zM17.004 33.696h-2.22v2.228h2.22v-2.228zM19.723 39.283h-2.22v2.228h2.22v-2.228zM17.004 39.283h-2.22v2.228h2.22v-2.228zM22.474 42.107h-2.22v2.228h2.22v-2.228zM19.723 42.107h-2.22v2.228h2.22v-2.228zM14.285 42.107h-2.22v2.228h2.22v-2.228zM17.004 44.897h-2.22v2.227h2.22v-2.227zM7.847 44.897h-2.22v2.227h2.22v-2.227zM22.474 50.516h-2.22v2.227h2.22v-2.227zM19.723 50.516h-2.22v2.227h2.22v-2.227zM17.004 50.516h-2.22v2.227h2.22v-2.227zM14.285 50.516h-2.22v2.227h2.22v-2.227zM22.474 53.339h-2.22v2.227h2.22V53.34zM22.474 58.923h-2.22v2.227h2.22v-2.227zM19.723 58.923h-2.22v2.227h2.22v-2.227zM17.004 58.923h-2.22v2.227h2.22v-2.227zM14.285 58.923h-2.22v2.227h2.22v-2.227zM19.723 61.746h-2.22v2.228h2.22v-2.228zM17.723 67.365h-2.22v2.228h2.22v-2.228zM20.442 70.154h-2.219v2.228h2.22v-2.228zM14.567 70.154h-2.22v2.228h2.22v-2.228zM25.193 30.873h-2.22v2.228h2.22v-2.228zM25.193 28.081h-2.22v2.228h2.22V28.08zM25.193 47.723h-2.22v2.227h2.22v-2.227zM25.193 33.696h-2.22v2.228h2.22v-2.228zM25.193 44.897h-2.22v2.227h2.22v-2.227zM25.193 42.107h-2.22v2.228h2.22v-2.228zM25.193 39.283h-2.22v2.228h2.22v-2.228zM25.193 36.49h-2.22v2.227h2.22v-2.228zM27.944 53.339h-2.22v2.227h2.22V53.34zM27.944 50.516h-2.22v2.227h2.22v-2.227zM25.193 22.465h-2.22v2.227h2.22v-2.227zM27.944 47.723h-2.22v2.227h2.22v-2.227zM25.193 19.64h-2.22v2.228h2.22v-2.227zM27.944 44.897h-2.22v2.227h2.22v-2.227zM25.193 11.232h-2.22v2.228h2.22v-2.228zM25.193 14.025h-2.22v2.228h2.22v-2.228zM25.193 10.638V9.414l-1.938.753a1.265 1.265 0 00-.281.157v.314h2.219zM30.663 7.31l-1.406.533h1.406V7.31zM27.913 10.635V8.438h-.157l-2.031.785v1.412h2.188zM36.103 67.365h-2.22v.314a31.957 31.957 0 002.22 1.882v-2.196zM33.382 56.13h-2.219v2.228h2.22v-2.227zM41.573 70.154h-2.22v1.883c.157.125.313.22.47.345h1.75v-2.228zM45.106 75.772c.656.377 1.282.753 1.938 1.099v-1.099h-1.938zM36.853 70.154c.656.502 1.313 1.036 2 1.506v-1.506h-2zM27.944 30.873h-2.22v2.228h2.22v-2.228zM30.663 30.873h-2.22v2.228h2.22v-2.228zM30.663 33.696h-2.22v2.228h2.22v-2.228zM30.663 28.081h-2.22v2.228h2.22V28.08zM30.663 42.107h-2.22v2.228h2.22v-2.228zM30.663 44.897h-2.22v2.227h2.22v-2.227zM30.663 39.283h-2.22v2.228h2.22v-2.228zM30.663 36.49h-2.22v2.227h2.22v-2.228zM30.663 25.257h-2.22v2.227h2.22v-2.227zM30.663 8.438h-2.22v2.228h2.22V8.438zM33.382 61.746h-2.219v2.228h2.22v-2.228zM33.382 58.923h-2.219v2.227h2.22v-2.227zM30.663 19.64h-2.22v2.228h2.22v-2.227zM30.663 22.465h-2.22v2.227h2.22v-2.227zM30.663 11.232h-2.22v2.228h2.22v-2.228zM30.663 14.025h-2.22v2.228h2.22v-2.228zM27.944 25.257h-2.22v2.227h2.22v-2.227zM27.944 28.081h-2.22v2.228h2.22V28.08zM27.944 22.465h-2.22v2.227h2.22v-2.227zM33.382 7.843v-1.6l-2.219.847v.753h2.22zM27.944 42.107h-2.22v2.228h2.22v-2.228zM27.944 39.283h-2.22v2.228h2.22v-2.228zM27.944 36.49h-2.22v2.227h2.22v-2.228zM27.944 33.696h-2.22v2.228h2.22v-2.228zM30.663 53.339h-2.22v2.227h2.22V53.34zM30.663 56.13h-2.22v2.228h2.22v-2.227zM30.663 47.723h-2.22v2.227h2.22v-2.227zM30.663 50.516h-2.22v2.227h2.22v-2.227zM27.944 19.64h-2.22v2.228h2.22v-2.227zM27.944 14.025h-2.22v2.228h2.22v-2.228zM27.944 11.232h-2.22v2.228h2.22v-2.228zM30.663 58.923h-2.22v2.227h2.22v-2.227zM44.292 72.978h-2.219v.942c.688.439 1.344.878 2.032 1.286h.156v-2.228h.031zM27.944 67.365h-2.22v2.228h2.22v-2.228zM27.944 64.54h-2.22v2.228h2.22V64.54zM41.573 72.978h-2.188v2.197h2.188v-2.197zM33.382 67.365h-2.219v2.228h2.22v-2.228zM30.663 64.54h-2.22v2.228h2.22V64.54zM36.103 7.844V5.616h-1.157l-1.031.408v1.82h2.188zM22.974 50.516v2.227H25.193v-2.227h-2.22zM41.573 5.022V3.045l-2.22.847v1.13h2.22zM38.853 5.02v-.91l-2.22.847v.063h2.22zM44.293 5.021V2.825H42.105v2.196h2.188zM44.293 1.976l-.626.25h.626v-.25zM47.043 2.227V.909l-2.22.879v.439h2.22zM23.818 53.339h-.844v2.196H25.193V53.34h-1.375zM24.974 56.13h-2v2.228h2.219v-2.227h-.219zM41.573 25.257h-2.22v2.227h2.22v-2.227zM44.324 67.365h-2.219v2.228h2.22v-2.228zM44.324 53.339h-2.219v2.227h2.22V53.34zM44.324 50.516h-2.219v2.227h2.22v-2.227zM44.324 64.54h-2.219v2.228h2.22V64.54zM44.324 25.257h-2.219v2.227h2.22v-2.227zM44.324 58.923h-2.219v2.227h2.22v-2.227zM44.324 61.746h-2.219v2.228h2.22v-2.228zM44.324 56.13h-2.219v2.228h2.22v-2.227zM44.324 30.873h-2.219v2.228h2.22v-2.228zM44.324 44.897h-2.219v2.227h2.22v-2.227zM44.324 28.081h-2.219v2.228h2.22V28.08zM44.324 33.696h-2.219v2.228h2.22v-2.228zM44.324 42.107h-2.219v2.228h2.22v-2.228zM44.324 39.283h-2.219v2.228h2.22v-2.228zM44.324 36.49h-2.219v2.227h2.22v-2.228zM44.324 47.723h-2.219v2.227h2.22v-2.227zM41.573 36.49h-2.22v2.227h2.22v-2.228zM41.573 33.696h-2.22v2.228h2.22v-2.228zM41.573 39.283h-2.22v2.228h2.22v-2.228zM41.573 42.107h-2.22v2.228h2.22v-2.228zM41.573 28.081h-2.22v2.228h2.22V28.08zM41.573 47.723h-2.22v2.227h2.22v-2.227zM41.573 44.897h-2.22v2.227h2.22v-2.227zM41.573 8.438h-2.22v2.228h2.22V8.438zM44.324 70.154h-2.219v2.228h2.22v-2.228zM41.573 5.616h-2.22v2.228h2.22V5.616zM41.573 11.232h-2.22v2.228h2.22v-2.228zM41.573 14.025h-2.22v2.228h2.22v-2.228zM41.573 19.64h-2.22v2.228h2.22v-2.227zM41.573 16.85h-2.22v2.227h2.22V16.85zM41.573 22.465h-2.22v2.227h2.22v-2.227zM47.043 58.923h-2.22v2.227h2.22v-2.227zM47.043 36.49h-2.22v2.227h2.22v-2.228zM47.043 30.873h-2.22v2.228h2.22v-2.228zM47.043 28.081h-2.22v2.228h2.22V28.08zM47.043 44.897h-2.22v2.227h2.22v-2.227zM47.043 39.283h-2.22v2.228h2.22v-2.228zM47.043 25.257h-2.22v2.227h2.22v-2.227zM47.043 42.107h-2.22v2.228h2.22v-2.228zM47.043 2.825h-2.22v2.228h2.22V2.825zM47.043 8.438h-2.22v2.228h2.22V8.438zM47.043 5.616h-2.22v2.228h2.22V5.616zM47.043 47.723h-2.22v2.227h2.22v-2.227zM47.043 22.465h-2.22v2.227h2.22v-2.227zM47.043 16.85h-2.22v2.227h2.22V16.85zM47.043 14.025h-2.22v2.228h2.22v-2.228zM44.324 22.465h-2.219v2.227h2.22v-2.227zM47.043 11.232h-2.22v2.228h2.22v-2.228zM44.324 8.438h-2.219v2.228h2.22V8.438zM44.324 5.616h-2.219v2.228h2.22V5.616zM44.324 11.232h-2.219v2.228h2.22v-2.228zM47.043 72.978h-2.22v2.228h2.22v-2.228zM44.324 19.64h-2.219v2.228h2.22v-2.227zM44.324 16.85h-2.219v2.227h2.22V16.85zM47.043 50.516h-2.22v2.227h2.22v-2.227zM44.324 14.025h-2.219v2.228h2.22v-2.228zM41.573 50.516h-2.22v2.227h2.22v-2.227zM47.043 56.13h-2.22v2.228h2.22v-2.227zM47.043 53.339h-2.22v2.227h2.22V53.34zM47.043 64.54h-2.22v2.228h2.22V64.54zM47.043 61.746h-2.22v2.228h2.22v-2.228zM47.043 67.365h-2.22v2.228h2.22v-2.228zM47.043 70.154h-2.22v2.228h2.22v-2.228zM38.853 22.465h-2.22v2.227h2.22v-2.227zM36.134 50.516h-2.219v2.227h2.22v-2.227zM36.134 53.339h-2.219v2.227h2.22V53.34zM36.134 47.723h-2.219v2.227h2.22v-2.227zM36.134 58.923h-2.219v2.227h2.22v-2.227zM36.134 61.746h-2.219v2.228h2.22v-2.228zM36.134 56.13h-2.219v2.228h2.22v-2.227zM36.134 64.54h-2.219v2.228h2.22V64.54zM36.134 44.897h-2.219v2.227h2.22v-2.227zM36.134 25.257h-2.219v2.227h2.22v-2.227zM41.573 53.339h-2.22v2.227h2.22V53.34zM36.134 28.081h-2.219v2.228h2.22V28.08zM36.134 36.49h-2.219v2.227h2.22v-2.228zM36.134 30.873h-2.219v2.228h2.22v-2.228zM36.134 42.107h-2.219v2.228h2.22v-2.228zM36.134 33.696h-2.219v2.228h2.22v-2.228zM33.382 36.49h-2.219v2.227h2.22v-2.228zM33.382 39.283h-2.219v2.228h2.22v-2.228zM33.382 42.107h-2.219v2.228h2.22v-2.228zM33.382 33.696h-2.219v2.228h2.22v-2.228zM36.134 19.64h-2.219v2.228h2.22v-2.227zM33.382 8.438h-2.219v2.228h2.22V8.438zM33.382 50.516h-2.219v2.227h2.22v-2.227zM33.382 47.723h-2.219v2.227h2.22v-2.227zM33.382 44.897h-2.219v2.227h2.22v-2.227zM33.382 16.85h-2.219v2.227h2.22V16.85zM33.382 14.025h-2.219v2.228h2.22v-2.228zM33.382 11.232h-2.219v2.228h2.22v-2.228zM33.382 28.081h-2.219v2.228h2.22V28.08zM33.382 30.873h-2.219v2.228h2.22v-2.228zM33.382 25.257h-2.219v2.227h2.22v-2.227zM33.382 19.64h-2.219v2.228h2.22v-2.227zM36.134 22.465h-2.219v2.227h2.22v-2.227zM38.853 16.85h-2.22v2.227h2.22V16.85zM38.853 19.64h-2.22v2.228h2.22v-2.227zM38.853 14.025h-2.22v2.228h2.22v-2.228zM38.853 28.081h-2.22v2.228h2.22V28.08zM38.853 30.873h-2.22v2.228h2.22v-2.228zM33.382 53.339h-2.219v2.227h2.22V53.34zM38.853 25.257h-2.22v2.227h2.22v-2.227zM38.853 11.232h-2.22v2.228h2.22v-2.228zM41.573 58.923h-2.22v2.227h2.22v-2.227zM41.573 56.13h-2.22v2.228h2.22v-2.227zM41.573 61.746h-2.22v2.228h2.22v-2.228zM38.853 5.616h-2.22v2.228h2.22V5.616zM38.853 8.438h-2.22v2.228h2.22V8.438zM41.573 67.365h-2.22v2.228h2.22v-2.228zM41.573 64.54h-2.22v2.228h2.22V64.54zM38.853 42.107h-2.22v2.228h2.22v-2.228zM38.853 58.923h-2.22v2.227h2.22v-2.227zM38.853 61.746h-2.22v2.228h2.22v-2.228zM38.853 67.365h-2.22v2.228h2.22v-2.228zM38.853 64.54h-2.22v2.228h2.22V64.54zM36.134 14.025h-2.219v2.228h2.22v-2.228zM36.134 8.438h-2.219v2.228h2.22V8.438zM36.134 11.232h-2.219v2.228h2.22v-2.228zM38.853 47.723h-2.22v2.227h2.22v-2.227zM38.853 39.283h-2.22v2.228h2.22v-2.228zM36.134 16.85h-2.219v2.227h2.22V16.85zM38.853 36.49h-2.22v2.227h2.22v-2.228zM38.853 33.696h-2.22v2.228h2.22v-2.228zM38.853 50.516h-2.22v2.227h2.22v-2.227zM38.853 56.13h-2.22v2.228h2.22v-2.227zM38.853 44.897h-2.22v2.227h2.22v-2.227z"/><path d="M17.004 11.232h-2.22v2.228h2.22v-2.228zM14.285 11.232h-2.22v2.228h2.22v-2.228zM22.474 14.025h-2.22v2.228h2.22v-2.228zM19.723 14.025h-2.22v2.228h2.22v-2.228zM17.004 14.025h-2.22v2.228h2.22v-2.228zM14.285 14.025h-2.22v2.228h2.22v-2.228zM10.627 14.025h-2.22v2.228h2.22v-2.228zM2.22 14.025H0v2.228h2.22v-2.228zM22.474 19.64h-2.22v2.228h2.22v-2.227zM19.723 19.64h-2.22v2.228h2.22v-2.227zM17.004 19.64h-2.22v2.228h2.22v-2.227zM14.285 19.64h-2.22v2.228h2.22v-2.227zM22.474 28.081h-2.22v2.228h2.22V28.08zM19.723 28.081h-2.22v2.228h2.22V28.08zM22.474 30.873h-2.22v2.228h2.22v-2.228zM17.004 30.873h-2.22v2.228h2.22v-2.228zM14.285 30.873h-2.22v2.228h2.22v-2.228zM22.474 33.696h-2.22v2.228h2.22v-2.228zM19.723 33.696h-2.22v2.228h2.22v-2.228zM17.004 33.696h-2.22v2.228h2.22v-2.228zM19.723 39.283h-2.22v2.228h2.22v-2.228zM17.004 39.283h-2.22v2.228h2.22v-2.228zM22.474 42.107h-2.22v2.228h2.22v-2.228zM19.723 42.107h-2.22v2.228h2.22v-2.228zM14.285 42.107h-2.22v2.228h2.22v-2.228zM17.004 44.897h-2.22v2.227h2.22v-2.227zM7.847 44.897h-2.22v2.227h2.22v-2.227zM22.474 50.516h-2.22v2.227h2.22v-2.227zM19.723 50.516h-2.22v2.227h2.22v-2.227zM17.004 50.516h-2.22v2.227h2.22v-2.227zM14.285 50.516h-2.22v2.227h2.22v-2.227zM22.474 53.339h-2.22v2.227h2.22V53.34zM22.474 58.923h-2.22v2.227h2.22v-2.227zM19.723 58.923h-2.22v2.227h2.22v-2.227zM17.004 58.923h-2.22v2.227h2.22v-2.227zM14.285 58.923h-2.22v2.227h2.22v-2.227zM33.258 64.54h-2.22v2.228h2.22V64.54zM28.007 58.733h-2.375v2.385h2.375v-2.385zM27.914 61.621h-2.22v2.228h2.22V61.62zM25.256 61.621h-2.219v2.228h2.22V61.62zM66.36 64.571c5.096-5.553 8.565-12.205 8.565-20.206V11.201c0-.722-.5-1.318-1.156-1.537L47.762.063C47.7.03 47.637.03 47.575 0v78c.25 0 .531-.063.75-.188 6.439-3.483 13.034-7.813 18.036-13.24z"/></svg><svg fill="none" viewBox="0 0 46 47" id="telegram" xmlns="http://www.w3.org/2000/svg"><path d="M23 .482c-12.703 0-23 10.405-23 23.24C0 36.56 10.297 46.965 23 46.965s23-10.405 23-23.241S35.703.482 23 .482zm11.214 14.781c-.13 2.135-4.048 18.066-4.048 18.066s-.235.933-1.074.964c-.306.01-.678-.051-1.12-.437-.887-.768-2.934-2.238-4.84-3.567a48.565 48.565 0 00-2.912 2.692c-1.684 1.701-1.469 0-1.469 0l.518-5.553.014.006a.547.547 0 01.06-.103s9.92-8.91 10.182-9.844c.02-.072-.058-.106-.16-.075-.658.244-12.08 7.533-13.34 8.335-.075.049-.28.018-.28.018l-5.54-1.825s-.66-.272-.45-.889c.045-.127.133-.234.396-.42 1.226-.864 22.724-8.673 22.724-8.673s.606-.206.964-.069c.163.062.27.135.358.393.03.093.05.296.047.496 0 .144-.02.275-.03.485z" fill="#fff"/></svg></svg>