<?xml version="1.0" encoding="utf-8"?><svg viewBox="0 0 347 120" xmlns="http://www.w3.org/2000/svg" xmlns:xlink="http://www.w3.org/1999/xlink"><style>:root>svg{display:none}:root>svg:target{display:block}</style><svg fill="none" viewBox="0 0 347 120" id="ni-gr-developer" xmlns="http://www.w3.org/2000/svg"><path fill="#42E727" d="M0 0h120v120H0z"/><path d="M53.719 14.2h15.872v2.432c-.81.64-1.707 1.216-2.688 1.728-.981.47-1.899.832-2.752 1.088v40.32h-5.44l-22.592-32.64-2.56-4.928h-.192l.576 5.12v26.688c.853.213 1.792.576 2.816 1.088 1.067.47 1.963.96 2.688 1.472V59H23.639v-2.432c.768-.512 1.6-.981 2.496-1.408.939-.47 1.899-.853 2.88-1.152V19.064a33.725 33.725 0 01-2.56-1.152 19.302 19.302 0 01-2.304-1.344V14.2h13.824l18.368 26.624 2.944 5.504h.256l-.32-5.504V19.448a26.08 26.08 0 01-3.008-1.216 19.387 19.387 0 01-2.496-1.6V14.2zM96.907 59H79.243v-2.496c.64-.341 1.301-.619 1.984-.832.683-.256 1.43-.49 2.24-.704V31.544l-4.224-.512v-2.496a22.27 22.27 0 012.368-.768c.981-.256 2.005-.47 3.072-.64a43.534 43.534 0 013.136-.512c1.024-.17 1.92-.299 2.688-.384h2.176v28.736c.853.213 1.621.448 2.304.704.683.213 1.323.49 1.92.832V59zM82.379 16.504c0-1.493.512-2.667 1.536-3.52 1.024-.853 2.347-1.28 3.968-1.28s2.944.427 3.968 1.28 1.536 2.027 1.536 3.52c0 1.45-.512 2.603-1.536 3.456-1.024.853-2.347 1.28-3.968 1.28s-2.944-.427-3.968-1.28-1.536-2.005-1.536-3.456zm-20.91 89.68c-.853.427-1.898.853-3.136 1.28a46.53 46.53 0 01-3.904 1.152c-1.365.341-2.73.619-4.096.832-1.365.213-2.581.32-3.648.32-3.67 0-6.955-.469-9.856-1.408-2.858-.981-5.312-2.432-7.36-4.352-2.005-1.963-3.541-4.395-4.608-7.296-1.067-2.901-1.6-6.272-1.6-10.112 0-4.181.64-7.723 1.92-10.624 1.323-2.944 3.05-5.333 5.184-7.168a20.526 20.526 0 017.36-4.096 27.95 27.95 0 018.384-1.28c2.816 0 5.462.192 7.936.576 2.475.384 4.438.939 5.888 1.664 0 .64-.042 1.472-.128 2.496a48.032 48.032 0 01-.256 3.2 48.235 48.235 0 01-.512 3.456 27.02 27.02 0 01-.64 3.136h-2.624l-3.584-9.728c-.47-.213-1.173-.363-2.112-.448a20.819 20.819 0 00-2.816-.192c-1.75 0-3.434.341-5.056 1.024-1.621.683-3.05 1.792-4.288 3.328-1.237 1.493-2.218 3.456-2.944 5.888-.725 2.39-1.088 5.312-1.088 8.768 0 2.816.32 5.397.96 7.744.683 2.304 1.622 4.288 2.816 5.952 1.195 1.664 2.624 2.965 4.288 3.904 1.664.939 3.499 1.408 5.504 1.408.64 0 1.301-.043 1.984-.128a21.139 21.139 0 001.92-.448 9.02 9.02 0 001.536-.576c.47-.213.79-.405.96-.576V91.848a12.401 12.401 0 01-3.136-.64 17.901 17.901 0 01-2.752-1.216V87.56h17.472v2.432c-.384.384-.896.747-1.536 1.088-.64.299-1.45.555-2.432.768v14.336zM91.1 84.36c-.512.256-1.11.683-1.792 1.28-.683.597-1.301 1.579-1.856 2.944v16.384a13.58 13.58 0 012.56.512c.853.213 1.707.555 2.56 1.024V109h-18.56v-2.496a11.684 11.684 0 012.176-.96 37.322 37.322 0 012.048-.576V81.544l-4.224-.512v-2.496c.683-.299 1.515-.576 2.496-.832 1.024-.256 2.07-.47 3.136-.64a46.109 46.109 0 013.072-.512l2.56-.32h2.176v8.512h.256c.341-.939.832-1.92 1.472-2.944a16.573 16.573 0 012.368-2.816 11.421 11.421 0 012.944-2.048 6.988 6.988 0 013.328-.704c.47.597.875 1.45 1.216 2.56a33.35 33.35 0 01.832 3.072v2.496H91.1z" fill="#1400FB"/><path fill="#D9D9D9" d="M120 0h227v120H120z"/><path d="M105.874 75v-1.52c.454-.267.96-.493 1.52-.68a9.52 9.52 0 011.76-.48V49.68a19.854 19.854 0 01-1.8-.48 11.07 11.07 0 01-1.48-.68V47h4.64a43.1 43.1 0 001.68-.04c.667-.027 1.36-.053 2.08-.08.72-.053 1.414-.093 2.08-.12.694-.053 1.28-.08 1.76-.08 2.32 0 4.387.307 6.2.92 1.84.613 3.387 1.507 4.64 2.68 1.28 1.173 2.254 2.627 2.92 4.36.694 1.733 1.04 3.733 1.04 6 0 2.213-.32 4.227-.96 6.04-.64 1.813-1.6 3.36-2.88 4.64-1.28 1.28-2.906 2.28-4.88 3-1.946.693-4.24 1.04-6.88 1.04-.346 0-.813-.027-1.4-.08a55.257 55.257 0 01-1.88-.12 50.515 50.515 0 01-2-.12 44.557 44.557 0 00-1.76-.04h-4.4zm11.72-25.72c-.48 0-.96.013-1.44.04-.48.027-.893.067-1.24.12V72.6c.107.027.294.053.56.08.267 0 .534.013.8.04.294 0 .574.013.84.04h.6c1.547 0 2.854-.32 3.92-.96a7.8 7.8 0 002.68-2.6c.694-1.093 1.2-2.373 1.52-3.84.32-1.467.48-3.027.48-4.68 0-1.467-.173-2.88-.52-4.24-.32-1.36-.826-2.573-1.52-3.64a7.82 7.82 0 00-2.72-2.56c-1.093-.64-2.413-.96-3.96-.96zm40.373 22.36c-.213.453-.56.92-1.04 1.4-.453.453-1.026.867-1.72 1.24-.666.347-1.453.627-2.36.84-.88.24-1.84.36-2.88.36-1.653 0-3.12-.24-4.4-.72-1.28-.507-2.346-1.213-3.2-2.12-.853-.933-1.506-2.04-1.96-3.32-.426-1.28-.64-2.72-.64-4.32 0-3.413.894-6.013 2.68-7.8 1.787-1.787 4.267-2.68 7.44-2.68 1.36 0 2.627.187 3.8.56 1.2.373 2.187.987 2.96 1.84.8.853 1.347 1.973 1.64 3.36.32 1.387.307 3.08-.04 5.08h-12.28c.027 2.107.56 3.787 1.6 5.04 1.067 1.253 2.627 1.88 4.68 1.88.88 0 1.787-.133 2.72-.4.96-.267 1.707-.613 2.24-1.04l.76.8zm-8.24-14.84c-.533 0-1.013.093-1.44.28-.4.187-.76.533-1.08 1.04-.293.48-.533 1.147-.72 2-.186.827-.32 1.88-.4 3.16h6.44c.187-2.08.067-3.68-.36-4.8-.426-1.12-1.24-1.68-2.44-1.68zm23.341 18.68l-8-17.96a11.868 11.868 0 01-2.12-.96V55h10.52v1.52c-.347.187-.707.373-1.08.56-.347.16-.747.307-1.2.44l3.72 10.24.76 2.68h.08l.64-2.72 3.4-10.2a7.894 7.894 0 01-1.2-.4 7.346 7.346 0 01-1-.56V55h7.72v1.56c-.267.187-.6.36-1 .52-.374.16-.8.307-1.28.44l-7 17.48-2.96.48zm34.696-3.84c-.213.453-.56.92-1.04 1.4-.453.453-1.026.867-1.72 1.24-.666.347-1.453.627-2.36.84-.88.24-1.84.36-2.88.36-1.653 0-3.12-.24-4.4-.72-1.28-.507-2.346-1.213-3.2-2.12-.853-.933-1.506-2.04-1.96-3.32-.426-1.28-.64-2.72-.64-4.32 0-3.413.894-6.013 2.68-7.8 1.787-1.787 4.267-2.68 7.44-2.68 1.36 0 2.627.187 3.8.56 1.2.373 2.187.987 2.96 1.84.8.853 1.347 1.973 1.64 3.36.32 1.387.307 3.08-.04 5.08h-12.28c.027 2.107.56 3.787 1.6 5.04 1.067 1.253 2.627 1.88 4.68 1.88.88 0 1.787-.133 2.72-.4.96-.267 1.707-.613 2.24-1.04l.76.8zm-8.24-14.84c-.533 0-1.013.093-1.44.28-.4.187-.76.533-1.08 1.04-.293.48-.533 1.147-.72 2-.186.827-.32 1.88-.4 3.16h6.44c.187-2.08.067-3.68-.36-4.8-.426-1.12-1.24-1.68-2.44-1.68zM226.089 75h-11.04v-1.56c.88-.427 1.76-.747 2.64-.96V48.24l-3.04-.32v-1.56c.346-.16.826-.32 1.44-.48.613-.16 1.266-.293 1.96-.4a31.39 31.39 0 012.12-.32c.72-.107 1.36-.187 1.92-.24h1.36v27.56c.88.213 1.76.533 2.64.96V75zm6.241-10c0-1.627.24-3.08.72-4.36.507-1.307 1.213-2.413 2.12-3.32.933-.907 2.053-1.6 3.36-2.08s2.787-.72 4.44-.72c1.867 0 3.467.267 4.8.8 1.36.507 2.467 1.227 3.32 2.16.88.907 1.52 2.013 1.92 3.32.4 1.28.6 2.68.6 4.2 0 1.627-.24 3.093-.72 4.4-.48 1.28-1.187 2.373-2.12 3.28-.907.907-2.027 1.6-3.36 2.08-1.307.48-2.787.72-4.44.72-1.813 0-3.387-.253-4.72-.76-1.333-.533-2.44-1.253-3.32-2.16-.88-.933-1.533-2.04-1.96-3.32-.427-1.307-.64-2.72-.64-4.24zm6.2 0c0 1.2.067 2.307.2 3.32.16.987.427 1.827.8 2.52a4.29 4.29 0 001.52 1.64c.64.373 1.467.56 2.48.56.587 0 1.12-.133 1.6-.4.48-.293.893-.747 1.24-1.36.347-.64.6-1.467.76-2.48.187-1.04.28-2.307.28-3.8 0-1.227-.08-2.333-.24-3.32-.133-.987-.387-1.827-.76-2.52-.347-.693-.827-1.227-1.44-1.6-.613-.4-1.387-.6-2.32-.6-.693 0-1.293.147-1.8.44-.507.267-.933.72-1.28 1.36-.347.613-.613 1.44-.8 2.48-.16 1.013-.24 2.267-.24 3.76zm32.19 18h-11.04v-1.56a14.463 14.463 0 012.64-.96V57.84l-2.64-.32v-1.56c.427-.187.947-.36 1.56-.52.64-.16 1.293-.293 1.96-.4.667-.133 1.307-.24 1.92-.32l1.6-.2h1.36V59h.04c.453-1.28 1.16-2.347 2.12-3.2.987-.853 2.347-1.28 4.08-1.28 1.173 0 2.227.2 3.16.6.96.373 1.76.973 2.4 1.8.667.8 1.173 1.84 1.52 3.12.373 1.253.56 2.76.56 4.52 0 1.68-.24 3.2-.72 4.56-.453 1.36-1.12 2.507-2 3.44-.853.933-1.907 1.653-3.16 2.16-1.227.507-2.627.76-4.2.76-.907 0-1.627-.067-2.16-.2-.507-.107-1.053-.307-1.64-.6v5.8c.427.053.853.147 1.28.28.427.16.88.387 1.36.68V83zM272 57.72c-.907 0-1.72.32-2.44.96-.693.64-1.187 1.627-1.48 2.96v10.64c.427.32.88.56 1.36.72.48.133 1.107.2 1.88.2 1.52 0 2.64-.733 3.36-2.2.72-1.467 1.08-3.613 1.08-6.44 0-2.187-.28-3.867-.84-5.04-.533-1.2-1.507-1.8-2.92-1.8zm34.655 13.92c-.213.453-.56.92-1.04 1.4-.453.453-1.027.867-1.72 1.24-.667.347-1.453.627-2.36.84-.88.24-1.84.36-2.88.36-1.653 0-3.12-.24-4.4-.72-1.28-.507-2.347-1.213-3.2-2.12-.853-.933-1.507-2.04-1.96-3.32-.427-1.28-.64-2.72-.64-4.32 0-3.413.893-6.013 2.68-7.8 1.787-1.787 4.267-2.68 7.44-2.68 1.36 0 2.627.187 3.8.56 1.2.373 2.187.987 2.96 1.84.8.853 1.347 1.973 1.64 3.36.32 1.387.307 3.08-.04 5.08h-12.28c.027 2.107.56 3.787 1.6 5.04 1.067 1.253 2.627 1.88 4.68 1.88.88 0 1.787-.133 2.72-.4.96-.267 1.707-.613 2.24-1.04l.76.8zm-8.24-14.84c-.533 0-1.013.093-1.44.28-.4.187-.76.533-1.08 1.04-.293.48-.533 1.147-.72 2-.187.827-.32 1.88-.4 3.16h6.44c.187-2.08.067-3.68-.36-4.8-.427-1.12-1.24-1.68-2.44-1.68zm25.884 2.8c-.32.16-.693.427-1.12.8-.426.373-.813.987-1.16 1.84v10.24c.534.053 1.067.16 1.6.32a6.67 6.67 0 011.6.64V75h-11.6v-1.56c.48-.267.934-.467 1.36-.6.427-.133.854-.253 1.28-.36V57.84l-2.64-.32v-1.56c.427-.187.947-.36 1.56-.52.64-.16 1.294-.293 1.96-.4.667-.133 1.307-.24 1.92-.32l1.6-.2h1.36v5.32h.16c.214-.587.52-1.2.92-1.84.427-.64.92-1.227 1.48-1.76a7.15 7.15 0 011.84-1.28 4.368 4.368 0 012.08-.44c.294.373.547.907.76 1.6.214.667.387 1.307.52 1.92v1.56h-5.48z" fill="#000"/></svg></svg>